<svg width="20" height="24" viewBox="0 0 20 24" fill="none" xmlns="http://www.w3.org/2000/svg">
<path d="M16.277 12.7384C16.3009 10.8893 17.2939 9.13964 18.8693 8.17113C17.8754 6.75178 16.2108 5.85187 14.479 5.79768C12.6318 5.6038 10.8411 6.90299 9.89979 6.90299C8.9403 6.90299 7.49105 5.81693 5.93044 5.84904C3.89627 5.91476 1.9999 7.07128 1.01023 8.8497C-1.11717 12.533 0.46968 17.9461 2.50755 20.9234C3.52714 22.3813 4.71875 24.0098 6.27795 23.952C7.80371 23.8887 8.37356 22.9791 10.2153 22.9791C12.0399 22.9791 12.5746 23.952 14.1654 23.9153C15.8026 23.8887 16.8341 22.4509 17.8179 20.9792C18.5505 19.9404 19.1142 18.7924 19.4882 17.5775C17.5642 16.7637 16.2793 14.8274 16.277 12.7384Z" fill="white"/>
<path d="M13.2722 3.83968C14.1649 2.76805 14.6047 1.39066 14.4982 0C13.1344 0.143243 11.8746 0.795057 10.9698 1.82557C10.0851 2.83244 9.62472 4.1856 9.71177 5.5231C11.0761 5.53715 12.4173 4.903 13.2722 3.83968Z" fill="white"/>
</svg>
