<svg width="26" height="29" viewBox="0 0 26 29" fill="none" xmlns="http://www.w3.org/2000/svg">
<g filter="url(#filter0_ii_7_11986)">
<path d="M0.509301 0.436776C0.189201 0.775576 -4.69971e-07 1.30138 -4.69971e-07 1.98228V26.3099C-4.69971e-07 26.9919 0.189201 27.5166 0.509301 27.8554L0.5907 27.9346L14.2186 14.3067V14.1461V13.9855L0.5907 0.356476L0.509301 0.436776Z" fill="url(#paint0_linear_7_11986)"/>
<path d="M18.7605 18.8508L14.2186 14.3067V14.1461V13.9855L18.7616 9.44251L18.8639 9.5008L24.2462 12.5588C25.7829 13.4322 25.7829 14.8611 24.2462 15.7356L18.8639 18.7936L18.7605 18.8508Z" fill="url(#paint1_linear_7_11986)"/>
<g filter="url(#filter1_i_7_11986)">
<path d="M18.8644 18.7925L14.218 14.1461L0.509767 27.8554C1.01577 28.3922 1.85287 28.4582 2.79557 27.9236L18.8644 18.7925Z" fill="url(#paint2_linear_7_11986)"/>
</g>
<path d="M18.8644 9.49968L2.79557 0.369683C1.85287 -0.166017 1.01577 -0.098917 0.509767 0.437883L14.2191 14.1472L18.8644 9.49968Z" fill="url(#paint3_linear_7_11986)"/>
</g>
<defs>
<filter id="filter0_ii_7_11986" x="0" y="0" width="25.3987" height="28.2928" filterUnits="userSpaceOnUse" color-interpolation-filters="sRGB">
<feFlood flood-opacity="0" result="BackgroundImageFix"/>
<feBlend mode="normal" in="SourceGraphic" in2="BackgroundImageFix" result="shape"/>
<feColorMatrix in="SourceAlpha" type="matrix" values="0 0 0 0 0 0 0 0 0 0 0 0 0 0 0 0 0 0 127 0" result="hardAlpha"/>
<feOffset dy="-0.15"/>
<feComposite in2="hardAlpha" operator="arithmetic" k2="-1" k3="1"/>
<feColorMatrix type="matrix" values="0 0 0 0 0 0 0 0 0 0 0 0 0 0 0 0 0 0 0.12 0"/>
<feBlend mode="normal" in2="shape" result="effect1_innerShadow_7_11986"/>
<feColorMatrix in="SourceAlpha" type="matrix" values="0 0 0 0 0 0 0 0 0 0 0 0 0 0 0 0 0 0 127 0" result="hardAlpha"/>
<feOffset dy="0.15"/>
<feComposite in2="hardAlpha" operator="arithmetic" k2="-1" k3="1"/>
<feColorMatrix type="matrix" values="0 0 0 0 1 0 0 0 0 1 0 0 0 0 1 0 0 0 0.25 0"/>
<feBlend mode="normal" in2="effect1_innerShadow_7_11986" result="effect2_innerShadow_7_11986"/>
</filter>
<filter id="filter1_i_7_11986" x="0.509766" y="14.1461" width="18.3546" height="14.1467" filterUnits="userSpaceOnUse" color-interpolation-filters="sRGB">
<feFlood flood-opacity="0" result="BackgroundImageFix"/>
<feBlend mode="normal" in="SourceGraphic" in2="BackgroundImageFix" result="shape"/>
<feColorMatrix in="SourceAlpha" type="matrix" values="0 0 0 0 0 0 0 0 0 0 0 0 0 0 0 0 0 0 127 0" result="hardAlpha"/>
<feOffset dy="-0.15"/>
<feComposite in2="hardAlpha" operator="arithmetic" k2="-1" k3="1"/>
<feColorMatrix type="matrix" values="0 0 0 0 0 0 0 0 0 0 0 0 0 0 0 0 0 0 0.08 0"/>
<feBlend mode="normal" in2="shape" result="effect1_innerShadow_7_11986"/>
</filter>
<linearGradient id="paint0_linear_7_11986" x1="13.0106" y1="1.72488" x2="-5.44962" y2="20.1851" gradientUnits="userSpaceOnUse">
<stop stop-color="#00A0FF"/>
<stop offset="0.0066" stop-color="#00A1FF"/>
<stop offset="0.2601" stop-color="#00BEFF"/>
<stop offset="0.5122" stop-color="#00D2FF"/>
<stop offset="0.7604" stop-color="#00DFFF"/>
<stop offset="1" stop-color="#00E3FF"/>
</linearGradient>
<linearGradient id="paint1_linear_7_11986" x1="26.2465" y1="14.1461" x2="-0.368972" y2="14.1461" gradientUnits="userSpaceOnUse">
<stop stop-color="#FFE000"/>
<stop offset="0.4087" stop-color="#FFBD00"/>
<stop offset="0.7754" stop-color="#FFA500"/>
<stop offset="1" stop-color="#FF9C00"/>
</linearGradient>
<linearGradient id="paint2_linear_7_11986" x1="16.3411" y1="16.6693" x2="-8.69326" y2="41.7037" gradientUnits="userSpaceOnUse">
<stop stop-color="#FF3A44"/>
<stop offset="1" stop-color="#C31162"/>
</linearGradient>
<linearGradient id="paint3_linear_7_11986" x1="-2.94269" y1="-7.66054" x2="8.23584" y2="3.51799" gradientUnits="userSpaceOnUse">
<stop stop-color="#32A071"/>
<stop offset="0.0685" stop-color="#2DA771"/>
<stop offset="0.4762" stop-color="#15CF74"/>
<stop offset="0.8009" stop-color="#06E775"/>
<stop offset="1" stop-color="#00F076"/>
</linearGradient>
</defs>
</svg>
