<svg width="56" height="56" viewBox="0 0 56 56" fill="none" xmlns="http://www.w3.org/2000/svg">
<rect width="56" height="56" rx="28" fill="#EEF2FF"/>
<path d="M38.2966 25.5775L29.5466 16.8275C29.1364 16.4174 28.5801 16.187 28 16.187C27.42 16.187 26.8637 16.4174 26.4534 16.8275L17.7034 25.5775C17.4995 25.7802 17.3378 26.0214 17.2278 26.287C17.1178 26.5527 17.0616 26.8376 17.0625 27.1251V37.6251C17.0625 37.9732 17.2008 38.3071 17.4469 38.5532C17.6931 38.7994 18.0269 38.9376 18.375 38.9376H37.625C37.9731 38.9376 38.3069 38.7994 38.5531 38.5532C38.7992 38.3071 38.9375 37.9732 38.9375 37.6251V27.1251C38.9384 26.8376 38.8823 26.5527 38.7722 26.287C38.6622 26.0214 38.5005 25.7802 38.2966 25.5775ZM36.3125 36.3126H19.6875V27.3056L28 18.9931L36.3125 27.3056V36.3126Z" fill="#4F46E5"/>
</svg>
